<svg xmlns="http://www.w3.org/2000/svg" viewBox="0 0 275.16 64.31"><defs><style>.a{isolation:isolate;}.b{fill:#e40011;mix-blend-mode:multiply;}.c{fill:#231815;}.d{fill:#fff;}</style></defs><title>logo</title><g class="a"><circle class="b" cx="32.16" cy="32.16" r="32.16"/><rect class="c" x="88.78" y="13.83" width="1.8" height="36.62"/><polygon class="c" points="197.42 13.83 197.42 46.87 171.82 13.83 170.49 13.83 170.49 50.45 172.29 50.45 172.29 17.38 197.92 50.45 199.22 50.45 199.22 13.83 197.42 13.83"/><path class="c" d="M233.34,13.83,205,50.45h2.27l25.63-33.07V39.53c0,6.32-2.2,9.14-7.14,9.14H218.8v1.8h6.92c6,0,8.94-3.58,8.94-10.94V13.83Z"/><path class="c" d="M273.36,13.83V36a12.56,12.56,0,0,1-25.11,0V13.83h-1.8V36a14.36,14.36,0,0,0,28.71,0V13.83Z"/><path class="c" d="M156.25,13.83,132.94,43.91c-2.17,3-4.5,4.68-10,4.68H103.82l25.94-33.51V13.85H102.37v1.8h24.68l-26,33.56V50.4h21.88c5.47,0,8.57-1.47,11.44-5.4l21.4-27.61V39.53c0,6.32-2.2,9.14-7.14,9.14h-6.92v1.8h6.92c6,0,8.94-3.58,8.94-10.94V13.83Z"/><path class="d" d="M26.06,44.7v4.17a7.87,7.87,0,0,1-7.86,7.85v1.13a9,9,0,0,0,9-9V35h-.83l-6.67,8.61H10.93l16.24-21v-.76H18.77V5.37H17.64V21.83H9.24V23h8.41v5.32h1.13V23h6.7l-16.23,21v.78h9.57l-8.53,11,.84.75L20.23,44.7Zm0-7.52v6.39h-5Z"/><path class="d" d="M47.35,19.68,36.3,5.43h-.83V28.34H36.6V7.65l10,13L35.5,35h0V48.87a9,9,0,0,0,18,0V35H52.32V48.87a7.86,7.86,0,0,1-15.71,0V35.39L47.35,21.52l4.89,6.31a7.86,7.86,0,0,1-7.78,6.82v1.13c.29,0,.58,0,.87,0l.29,0,.56-.09.34-.08.48-.12.36-.12.42-.16.37-.16.37-.18.38-.2.32-.19.39-.25.24-.18c.14-.11.29-.21.42-.33l.08-.07a9,9,0,0,0,1.89-2.28l0,0c.12-.21.23-.43.34-.64l0-.06c.1-.22.19-.44.28-.66l0-.07q.12-.34.22-.7v-.05c.06-.25.12-.49.16-.75a9,9,0,0,0,.14-1.54V8.07q-.55-.49-1.13-1v6.15Zm5,5.31v1.1L48.06,20.6l4.26-5.5Z"/></g></svg>
