<svg width="200" height="50" viewBox="0 0 200 50" fill="none" xmlns="http://www.w3.org/2000/svg">
<path d="M51.7573 31.9726C51.6801 31.0179 51.0909 30.3692 50.1388 30.3692C49.2813 30.3692 48.6535 30.923 48.6535 31.7633C48.6535 32.7373 49.5478 33.1944 50.8998 33.6339C53.5652 34.5112 54.5752 36.0003 54.5752 37.9676C54.5752 39.8576 53.2039 42.0147 50.1581 42.0147C47.5681 42.0147 45.797 40.487 45.5884 37.7953H48.273C48.4063 38.9979 48.9955 39.7996 50.1966 39.7996C51.2628 39.7996 51.9098 39.0348 51.9098 38.1188C51.9098 37.0306 51.2049 36.4381 49.5671 35.9036C46.9772 35.0439 46.0268 33.5742 46.0268 31.7985C46.0268 29.5851 47.8539 28.1522 50.1581 28.1522C52.6323 28.1522 54.2333 29.68 54.328 31.9708H51.7573V31.9726Z" fill="#83B6C2"/>
<path d="M72.3962 41.5946H69.7694L69.1416 35.1987C69.0469 34.3407 68.9329 33.0978 68.8751 32.3347H68.7611C68.5331 33.1751 68.2473 34.3196 67.9808 35.2163L66.0957 41.5928H64.1914L62.2678 35.1213C62.0205 34.3003 61.7154 33.3087 61.5243 32.3347H61.3717C61.3332 33.1927 61.2385 34.244 61.1631 35.0844L60.4967 41.5946H58.04L59.5831 28.576H62.5904L64.4948 34.7222C64.7227 35.4483 65.0086 36.403 65.1804 37.1097H65.2558C65.4276 36.403 65.731 35.4096 65.9414 34.7222L67.8072 28.576H70.7969L72.3962 41.5946Z" fill="#83B6C2"/>
<path d="M80.1257 28.5742H82.677L87.4571 41.5928H84.6585L83.6485 38.634H78.8508L77.8233 41.5928H75.0825L80.1257 28.5742ZM79.4979 36.6878H82.9822L81.916 33.576C81.6688 32.8499 81.4776 32.2398 81.3075 31.5911H81.2128C81.041 32.2592 80.8323 32.9272 80.5851 33.5953L79.4979 36.6878Z" fill="#83B6C2"/>
<path d="M100.879 41.5946H97.6416L94.1188 36.4786H93.2613V41.5946H90.5381V28.576H94.5747C98.2291 28.576 99.5056 30.4079 99.5056 32.5457C99.5056 34.4163 98.3255 35.6769 96.8596 36.0971L100.879 41.5946ZM94.7097 30.77H93.2631V34.4726H94.729C95.967 34.4726 96.7088 33.7465 96.7088 32.6582C96.7088 31.4768 96.0056 30.77 94.7097 30.77Z" fill="#83B6C2"/>
<path d="M105.487 30.9423H102.402V28.5742H111.331V30.9423H108.228V41.5928H105.487V30.9423Z" fill="#83B6C2"/>
<path d="M129.095 30.9423H124.069V33.7483H128.923V36.0004H124.069V39.2265H129.305V41.5928H121.346V28.5742H129.095V30.9423Z" fill="#83B6C2"/>
<path d="M135.872 32.66C135.891 33.2701 135.947 34.5306 135.947 35.1231V41.5946H133.604V28.576H135.947L139.565 34.1684C140.764 36.0021 141.222 36.9181 141.583 37.6055H141.641C141.622 36.9568 141.583 35.8298 141.583 35.2584V28.5777H143.926V41.5964H141.583L138.271 36.4997C136.785 34.1702 136.329 33.3316 135.947 32.6618H135.872V32.66Z" fill="#83B6C2"/>
<path d="M156.169 30.9423H151.142V33.7483H155.997V36.0004H151.142V39.2265H156.378V41.5928H148.418V28.5742H156.169V30.9423Z" fill="#83B6C2"/>
<path d="M171.02 41.5946H167.783L164.26 36.4786H163.402V41.5946H160.679V28.576H164.716C168.372 28.576 169.647 30.4079 169.647 32.5457C169.647 34.4163 168.467 35.6769 167.001 36.0971L171.02 41.5946ZM164.851 30.77H163.404V34.4726H164.87C166.108 34.4726 166.85 33.7465 166.85 32.6582C166.85 31.4768 166.145 30.77 164.851 30.77Z" fill="#83B6C2"/>
<path d="M186.46 34.339V34.9684C186.46 38.3281 184.422 41.9743 179.816 41.9743C175.837 41.9743 173.056 38.9399 173.056 35.16C173.056 31.1322 175.931 28.1927 179.816 28.1927C182.919 28.1927 185.185 29.7398 186.06 32.2398H183.109C182.537 31.1515 181.357 30.5222 179.872 30.5222C177.645 30.5222 175.816 32.2398 175.816 35.0844C175.816 37.929 177.567 39.6466 180.022 39.6466C181.946 39.6466 183.354 38.2718 183.565 36.5928H179.147V34.3407H186.46V34.339Z" fill="#83B6C2"/>
<path d="M192.59 36.4012L188.381 28.5742H191.333L193.332 32.449C193.617 33.0028 193.865 33.5566 194.017 34.0717H194.056C194.266 33.5373 194.475 33.0608 194.761 32.4684L196.646 28.5742H199.502L195.313 36.3819V41.5928H192.59V36.4012Z" fill="#83B6C2"/>
<path d="M14.677 15.7103C15.7607 14.6238 17.2003 14.026 18.7312 14.026C20.262 14.026 21.7034 14.6238 22.7853 15.7103C24.6405 17.5703 24.9544 20.3956 23.7322 22.5861L26.0591 24.9191C28.5036 21.4223 28.1704 16.5541 25.0579 13.4335C23.3675 11.7387 21.1212 10.807 18.7312 10.807C16.3411 10.807 14.0948 11.7405 12.4044 13.4335C10.714 15.1283 9.78467 17.3804 9.78467 19.7767C9.78467 21.7124 10.3931 23.5548 11.5172 25.0844L13.8318 22.7637C12.4904 20.5503 12.7709 17.6195 14.677 15.7103Z" fill="#FFC332"/>
<path d="M18.7309 27.9061L15.9866 25.1547L13.7158 27.4332L18.7309 32.4613L23.8845 27.2943L21.6137 25.0158L18.7309 27.9061Z" fill="#FFC332"/>
<path d="M18.8698 23.0309C19.3626 23.0309 19.8255 23.2243 20.1745 23.5724L21.6141 25.0141L22.7872 23.8379C23.1677 23.4564 23.4816 23.0327 23.7341 22.5826L22.4488 21.2939C21.4931 20.3358 20.2236 19.8084 18.8733 19.8084C17.5231 19.8084 16.2518 20.3358 15.2979 21.2939L13.8354 22.7602C14.0687 23.1452 14.3492 23.5074 14.6806 23.8397L15.9923 25.1547L17.5705 23.5724C17.9142 23.2243 18.3771 23.0309 18.8698 23.0309Z" fill="#83B6C2"/>
<path d="M26.0592 24.9191C25.7646 25.3411 25.4331 25.7437 25.0579 26.1199L23.8848 27.2943L26.0329 29.4479C27.946 31.366 28.9998 33.917 28.9998 36.6297C28.9998 39.3425 27.946 41.8934 26.0329 43.8115C24.0566 45.7911 21.4649 46.7827 18.8697 46.7827C16.2762 46.7827 13.681 45.7911 11.7065 43.8115L4.54339 36.6297L13.7161 27.4332L12.4044 26.1199C12.08 25.7946 11.7837 25.4483 11.5154 25.0844L0 36.6297L9.43573 46.0882C12.0362 48.6972 15.4538 50 18.8697 50C22.2873 50 25.7032 48.6955 28.3054 46.0882C30.8252 43.5619 32.214 40.2022 32.214 36.6297C32.214 33.0555 30.827 29.6976 28.3054 27.1712L26.0592 24.9191Z" fill="#83B6C2"/>
<path d="M22.7854 23.8414L21.6123 25.0176L23.8831 27.2943L25.0562 26.1199C25.4315 25.7437 25.7629 25.3411 26.0575 24.9191L23.7306 22.5862C23.4816 23.0362 23.1677 23.4599 22.7854 23.8414Z" fill="#83B6C2"/>
<path d="M13.7163 27.4332L15.9871 25.1565L14.6755 23.8414C14.3441 23.5091 14.0635 23.147 13.8303 22.762L11.5156 25.0826C11.7839 25.4466 12.0803 25.7929 12.4047 26.1181L13.7163 27.4332Z" fill="#FFC332"/>
<path d="M18.7345 5.77004C19.5236 5.77004 20.1619 5.1301 20.1619 4.33896V1.43108C20.1619 0.641702 19.5218 0 18.7345 0C17.9454 0 17.3071 0.641702 17.3071 1.43108V4.3372C17.3071 5.12834 17.9454 5.77004 18.7345 5.77004Z" fill="#FFC332"/>
<path d="M31.7791 6.4135L29.7293 8.4687C29.1716 9.02777 29.1716 9.93494 29.7293 10.494C30.0081 10.7736 30.3728 10.9124 30.7393 10.9124C31.104 10.9124 31.4705 10.7718 31.7493 10.494L33.7992 8.43881C34.3568 7.87974 34.3568 6.97257 33.7992 6.4135C33.2398 5.85443 32.3367 5.85443 31.7791 6.4135Z" fill="#FFC332"/>
<path d="M5.95149 10.5345C6.2303 10.814 6.59503 10.9546 6.96152 10.9546C7.32625 10.9546 7.69274 10.814 7.97155 10.5345C8.52917 9.97538 8.52917 9.06997 7.97155 8.50914L5.91992 6.45393C5.3623 5.89486 4.45924 5.89486 3.90161 6.45393C3.34399 7.013 3.34399 7.92018 3.90161 8.47925L5.95149 10.5345Z" fill="#FFC332"/>
</svg>
